<svg width="40.000000" height="40.000000" viewBox="0 0 40 40" fill="none" xmlns="http://www.w3.org/2000/svg" xmlns:xlink="http://www.w3.org/1999/xlink">
	<desc>
			Created with Pixso.
	</desc>
	<defs>
		<clipPath id="clip13_94">
			<rect id="logos:telegram" width="40.000000" height="40.000000" fill="white" fill-opacity="0"/>
		</clipPath>
	</defs>
	<rect id="logos:telegram" width="40.000000" height="40.000000" fill="#FFFFFF" fill-opacity="0"/>
	<g clip-path="url(#clip13_94)">
		<path id="Vector" d="M20 0C14.6968 0 9.6062 2.1084 5.85938 5.85791C2.10864 9.60889 0.000976562 14.6958 0 20C0 25.3022 2.10938 30.3926 5.85938 34.1421C9.6062 37.8916 14.6968 40 20 40C25.3032 40 30.3938 37.8916 34.1406 34.1421C37.8906 30.3926 40 25.3022 40 20C40 14.6978 37.8906 9.60742 34.1406 5.85791C30.3938 2.1084 25.3032 0 20 0Z" fill="#262626" fill-opacity="1.000000" fill-rule="nonzero"/>
		<path id="Vector" d="M9.05322 19.7891C14.8845 17.249 18.772 15.5742 20.7156 14.7651C26.272 12.4551 27.425 12.0537 28.1782 12.04C28.3438 12.0376 28.7126 12.0786 28.9531 12.2729C29.1531 12.437 29.2095 12.6587 29.2375 12.8145C29.2625 12.9702 29.2969 13.3252 29.2688 13.6021C28.9688 16.7642 27.6658 24.439 27.0032 27.981C26.7251 29.4795 26.1719 29.9824 25.6375 30.0312C24.4751 30.1382 23.5938 29.2637 22.4688 28.5264C20.7095 27.3726 19.7156 26.6543 18.0063 25.5283C16.0312 24.2271 17.3125 23.5117 18.4375 22.3433C18.7312 22.0371 23.8501 17.3823 23.947 16.9604C23.9595 16.9077 23.9719 16.7104 23.8533 16.6069C23.7375 16.5029 23.5657 16.5386 23.4407 16.5664C23.2625 16.6064 20.4531 18.4653 15.0032 22.1426C14.2063 22.6904 13.4844 22.958 12.8345 22.9438C12.1218 22.9282 10.7468 22.54 9.7251 22.208C8.4751 21.8008 7.47827 21.5854 7.56567 20.894C7.60938 20.5342 8.1062 20.1655 9.05322 19.7891Z" fill="#FFFFFF" fill-opacity="1.000000" fill-rule="nonzero"/>
	</g>
</svg>
