<svg width="246.000000" height="61.043945" viewBox="0 0 246 61.0439" fill="none" xmlns="http://www.w3.org/2000/svg" xmlns:xlink="http://www.w3.org/1999/xlink">
	<desc>
			Created with Pixso.
	</desc>
	<defs/>
	<path id="Vector" d="M6.19043 38.7061C5.87305 37.7798 5.23804 35.3721 5.23804 33.1494L5.23804 7.67725C5.23804 7.16602 5.66431 6.75586 6.19019 6.74463C14.864 6.56543 25.9285 3.98584 29.2908 1.31494C29.6714 1.01221 30.2188 0.947754 30.637 1.19922C34.0188 3.2334 40.9749 6.53369 50.4761 6.74414C51.0017 6.75586 51.4285 7.16699 51.4285 7.67871L51.4285 30.834M51.4285 38.7061C50 41.4844 46 46.856 45.238 47.9673M28.5713 59.0811C24.127 57.6919 14.7617 53.8945 12.8572 49.8198M13.3333 36.854C13.1697 36.3687 11.9048 32.9243 11.9048 31.7603L11.9048 13.2358C11.9048 12.7241 12.3308 12.3125 12.8557 12.2783C17.4375 11.979 26.7295 10.064 29.25 8.54395C29.6726 8.28906 30.2515 8.22705 30.6948 8.44629C33.2822 9.7251 38.8733 11.9639 43.812 12.2793C44.3369 12.313 44.7617 12.7266 44.7617 13.2383L44.7617 22.0356M41.4285 42.4106C39.1423 47.3013 32.4216 53.0693 30.1372 53.9292C29.97 53.9922 29.791 53.9844 29.625 53.9189C27.0681 52.9097 19.0432 47.7129 18.0952 45.6519" stroke="#30AFB8" stroke-opacity="1.000000" stroke-width="2.000000" stroke-linejoin="round"/>
	<path id="Vector" d="M26.3218 22.1343C25.5095 20.772 25.8743 19.4214 26.9214 18.8223L35.9956 13.6323C37.0427 13.0337 38.4229 13.3862 39.3081 14.4785L39.5112 14.8193C40.1206 15.8413 39.7556 17.1919 38.6357 18.0605L29.6345 22.9805C28.5874 23.5791 26.9312 23.1562 26.3218 22.1343ZM37.521 16.4062C37.7427 16.2139 37.8386 16.0508 37.8083 15.917C37.8032 15.8936 37.7942 15.8711 37.7815 15.8501L37.6602 15.6465C37.436 15.395 37.2405 15.2866 37.0735 15.3213C37.0417 15.3281 37.011 15.3398 36.9814 15.3569L27.907 20.5469C27.9026 20.5493 27.8992 20.5522 27.8962 20.5562C27.8931 20.5601 27.8911 20.5649 27.8899 20.5708C27.863 20.7002 27.917 20.8779 28.0518 21.1035C28.1184 21.2153 28.1985 21.2856 28.292 21.314C28.4033 21.3477 28.5337 21.3223 28.6831 21.2368L37.521 16.4062ZM33.6328 34.397L30.1804 28.6064C29.3682 27.2437 29.8059 25.623 31.2019 24.8247L39.2292 20.2334C40.6252 19.4351 42.2815 19.8584 43.0938 21.2207L46.5461 27.0117C47.3586 28.374 46.9207 29.9946 45.5247 30.7935L37.4976 35.3843C36.1013 36.1826 34.4451 35.7598 33.6328 34.397ZM35.3628 33.3662L31.9104 27.5757C31.8032 27.396 31.7622 27.2261 31.7869 27.0649C31.7903 27.043 31.7949 27.021 31.8008 26.999C31.8066 26.9771 31.8137 26.9556 31.822 26.9351C31.8818 26.7827 32.0037 26.6543 32.1875 26.5493L40.2148 21.958C40.457 21.8193 40.6738 21.7749 40.8652 21.8237C41.0569 21.8726 41.2231 22.0151 41.364 22.2515L44.8164 28.0425C44.9233 28.2217 44.9644 28.3921 44.9397 28.5532C44.9363 28.5752 44.9316 28.5972 44.9258 28.6191C44.9199 28.6406 44.9128 28.6621 44.9045 28.6831C44.8447 28.835 44.7229 28.9639 44.5391 29.0688L36.5117 33.6602C36.2695 33.7983 36.0527 33.8433 35.8613 33.7944C35.6697 33.7456 35.5037 33.6025 35.3628 33.3662ZM37.6943 41.21C36.8821 39.8472 37.2468 38.4966 38.3669 37.6279L47.4412 32.438C48.4883 31.8389 49.8684 32.1914 50.7539 33.2837L50.9568 33.6245C51.5662 34.6465 51.2012 35.9971 50.0813 36.8662L41.0071 42.0562C39.6838 42.5845 38.3037 42.2319 37.6943 41.21ZM40.1621 40.251L48.9536 35.2227C49.1846 35.0254 49.2847 34.8584 49.2539 34.7222C49.2488 34.6992 49.2397 34.6768 49.2271 34.6553L49.1057 34.4521C48.8816 34.2002 48.686 34.0918 48.519 34.127C48.4873 34.1333 48.4565 34.145 48.427 34.1621L39.5083 39.2632C39.3962 39.3687 39.3259 39.4834 39.2976 39.6069C39.2578 39.7803 39.3 39.9707 39.4243 40.1792C39.4417 40.208 39.4624 40.2329 39.4868 40.2539C39.6145 40.3643 39.8396 40.3633 40.1621 40.251ZM12.3274 47.7246C12.9856 47.3481 14.7249 45.9922 16.8367 44.3462C21.4426 40.7554 27.8203 35.7837 28.6165 36.5811C28.9456 36.8633 29.4175 36.8755 29.895 36.77C30.386 36.6616 30.8833 36.4282 31.2378 36.2358C31.5425 36.0708 31.7417 35.9355 31.7417 35.9355L27.8833 29.4634C27.8833 29.4634 27.4258 29.6812 26.9351 30.0283C26.6924 30.2002 26.4414 30.4038 26.2336 30.6289C25.905 30.9844 25.6841 31.3926 25.7734 31.812C26.0911 32.8833 18.5361 35.8799 13.0798 38.0444C10.5781 39.0366 8.51782 39.854 7.85962 40.2305C7.85962 40.2305 -1.4751 44.1992 1.36816 48.9678C4.21118 53.7368 12.3274 47.7246 12.3274 47.7246ZM27.4895 32.7354C26.8567 33.8755 25.1638 35.0732 22.4106 36.3281C20.6924 37.1113 17.8237 38.3003 13.8049 39.8945C10.8533 41.0649 9.2002 41.752 8.84521 41.9551L8.74097 42.0146L8.63037 42.0615C7.94971 42.3511 7.29443 42.6831 6.66479 43.0581C6.01538 43.4448 5.39307 43.8774 4.79785 44.3555C3.38623 45.4883 2.74951 46.4922 2.88721 47.3667C2.91821 47.5635 2.98853 47.7534 3.0979 47.937C3.2063 48.1191 3.33813 48.2725 3.49316 48.397C4.22046 48.9824 5.46143 48.9414 7.21582 48.2744C8.13916 47.9233 9.01709 47.4971 9.84985 46.9956C10.2927 46.729 10.7229 46.4409 11.1399 46.1318L11.2368 46.0601L11.3416 46C11.696 45.7974 13.1187 44.7251 15.6094 42.7837C19.0024 40.1387 21.4695 38.2754 23.0107 37.1943C25.4482 35.4849 27.3179 34.6304 28.6196 34.6309L27.4895 32.7354Z" fill="#30AFB8" fill-opacity="1.000000" fill-rule="evenodd"/>
	<path id="Rectangle 42" d="M51.5601 51.209C54.1174 51.209 56.1907 53.2822 56.1907 55.8398L37.1431 55.8398C37.1431 53.2822 39.2163 51.209 41.7737 51.209L51.5601 51.209ZM53.5601 53.209C53.9082 53.209 54.1907 53.4912 54.1907 53.8398L39.1431 53.8398C39.1431 53.4912 39.4253 53.209 39.7737 53.209L53.5601 53.209Z" fill="#30AFB8" fill-opacity="1.000000" fill-rule="evenodd"/>
	<path id="Rectangle 43" d="M54.4431 54.9131C57.512 54.9131 59.9998 57.4009 59.9998 60.4697L32.3809 60.4697C32.3809 57.4009 34.8687 54.9131 37.9377 54.9131L54.4431 54.9131ZM56.4431 56.9131C57.303 56.9131 57.9998 57.6099 57.9998 58.4697L34.3809 58.4697C34.3809 57.6099 35.0779 56.9131 35.9377 56.9131L56.4431 56.9131Z" fill="#30AFB8" fill-opacity="1.000000" fill-rule="evenodd"/>
	<path id="помиру 78" d="M72.4185 33.0439L72.4185 14.4771L86.8213 14.4771L86.8213 33.0439L83.4951 33.0439L83.4951 17.2891L75.7446 17.2891L75.7446 33.0439L72.4185 33.0439ZM108.245 23.7383C108.245 25.6595 107.927 27.3353 107.293 28.7656C106.662 30.196 105.697 31.311 104.398 32.1108C103.099 32.9064 101.47 33.3042 99.5105 33.3042C97.5343 33.3042 95.9008 32.9064 94.6101 32.1108C93.3194 31.311 92.3567 30.1917 91.7219 28.7529C91.0914 27.3141 90.7761 25.6341 90.7761 23.7129C90.7761 21.8044 91.0914 20.1349 91.7219 18.7046C92.3567 17.2743 93.3194 16.1655 94.6101 15.3784C95.9008 14.5871 97.5427 14.1914 99.5359 14.1914C101.495 14.1914 103.12 14.5871 104.411 15.3784C105.702 16.1655 106.662 17.2743 107.293 18.7046C107.927 20.1349 108.245 21.8128 108.245 23.7383ZM94.2864 23.7383C94.2864 25.833 94.7011 27.4792 95.5305 28.6768C96.3642 29.8701 97.6908 30.4668 99.5105 30.4668C101.347 30.4668 102.676 29.8701 103.497 28.6768C104.322 27.4792 104.735 25.833 104.735 23.7383C104.735 21.6393 104.326 19.9932 103.51 18.7998C102.697 17.6022 101.372 17.0034 99.5359 17.0034C97.7162 17.0034 96.3853 17.6022 95.5432 18.7998C94.7053 19.9932 94.2864 21.6393 94.2864 23.7383ZM120.177 33.0439L115.087 17.835L114.979 17.835C114.996 18.182 115.021 18.6729 115.055 19.3076C115.093 19.9382 115.125 20.6216 115.15 21.3579C115.176 22.0942 115.188 22.7819 115.188 23.4209L115.188 33.0439L112.198 33.0439L112.198 14.4771L116.826 14.4771L121.714 29.064L121.815 29.064L126.912 14.4771L131.54 14.4771L131.54 33.0439L128.372 33.0439L128.372 23.2686C128.372 22.6803 128.385 22.035 128.41 21.3325C128.436 20.63 128.461 19.9678 128.487 19.3457C128.512 18.7194 128.533 18.2243 128.55 17.8604L128.448 17.8604L123.142 33.0439L120.177 33.0439ZM136.352 14.4771L139.368 14.4771L139.368 23.916C139.368 24.4873 139.359 25.1326 139.342 25.8521C139.325 26.5715 139.304 27.2316 139.279 27.8325C139.253 28.4292 139.222 28.8312 139.184 29.0386L139.291 29.0386L148.496 14.4771L152.393 14.4771L152.393 33.0439L149.378 33.0439L149.378 23.6812C149.378 23.0591 149.395 22.3714 149.429 21.6182C149.462 20.8649 149.496 20.1857 149.53 19.5806C149.568 18.9712 149.596 18.5628 149.613 18.3555L149.505 18.3555L140.275 33.0439L136.352 33.0439L136.352 14.4771ZM162.74 14.4771C165.152 14.4771 166.908 14.9806 168.008 15.9878C169.108 16.995 169.659 18.3809 169.659 20.1455C169.659 21.2034 169.432 22.1979 168.979 23.1289C168.531 24.0557 167.773 24.8005 166.707 25.3633C165.64 25.9261 164.197 26.2075 162.378 26.2075L160.531 26.2075L160.531 33.0439L157.204 33.0439L157.204 14.4771L162.74 14.4771ZM162.536 17.2383L160.531 17.2383L160.531 23.4526L162.041 23.4526C163.391 23.4526 164.434 23.2051 165.171 22.71C165.907 22.2148 166.275 21.4045 166.275 20.2788C166.275 19.2547 165.973 18.493 165.368 17.9937C164.762 17.4901 163.819 17.2383 162.536 17.2383ZM181.931 27.6611C181.394 28.8757 180.837 29.904 180.262 30.7461C179.691 31.584 178.98 32.2209 178.129 32.6567C177.283 33.0884 176.185 33.3042 174.835 33.3042C174.365 33.3042 173.882 33.2682 173.387 33.1963C172.896 33.1286 172.442 33.0355 172.023 32.917L172.023 29.9209C172.403 30.0944 172.829 30.2214 173.298 30.3018C173.768 30.3779 174.219 30.416 174.651 30.416C175.552 30.416 176.231 30.2087 176.688 29.7939C177.149 29.3792 177.537 28.7804 177.85 27.9976L171.14 14.4771L174.701 14.4771L178.808 23.3447C178.914 23.569 179.058 23.8822 179.24 24.2842C179.422 24.682 179.555 25.0269 179.64 25.3188L179.773 25.3188C179.858 25.0607 179.983 24.7243 180.148 24.3096C180.313 23.8906 180.456 23.5267 180.579 23.2178L184.267 14.4771L187.727 14.4771L181.931 27.6611ZM196.556 33.0439L200.111 33.0439L208.14 17.0605L208.14 14.1343L195.261 14.1343L195.261 16.9971L204.598 16.9971L204.598 17.124L196.556 33.0439ZM217.479 33.3042C221.567 33.3042 224.493 31.0508 224.506 27.9722C224.493 25.6108 222.747 23.6367 220.551 23.2686L220.551 23.1353C222.462 22.71 223.795 20.9961 223.801 18.9458C223.795 16.0386 221.116 13.874 217.479 13.874C213.81 13.874 211.131 16.0259 211.144 18.9458C211.131 20.9961 212.445 22.71 214.394 23.1353L214.394 23.2686C212.16 23.6367 210.433 25.6108 210.439 27.9722C210.433 31.0508 213.347 33.3042 217.479 33.3042ZM217.479 30.6636C215.333 30.6636 213.95 29.4829 213.969 27.7373C213.95 25.9282 215.435 24.6396 217.479 24.6396C219.491 24.6396 220.964 25.9346 220.983 27.7373C220.964 29.4829 219.593 30.6636 217.479 30.6636ZM217.479 22.0498C215.721 22.0498 214.464 20.9136 214.483 19.2695C214.464 17.6445 215.682 16.5527 217.479 16.5527C219.237 16.5527 220.45 17.6445 220.469 19.2695C220.45 20.9199 219.205 22.0498 217.479 22.0498Z" fill="#30AFB8" fill-opacity="1.000000" fill-rule="evenodd"/>
	<path id="Защитим в любой ситуации" d="M76.457 45.4785C76.457 46.0625 76.2666 46.5273 75.8857 46.873C75.5068 47.2168 75.0049 47.4326 74.3799 47.5205L74.3799 47.5674C75.124 47.6553 75.6895 47.8779 76.0762 48.2354C76.4648 48.5908 76.6592 49.0527 76.6592 49.6211C76.6592 50.373 76.3652 50.9854 75.7773 51.458C75.1895 51.9287 74.3154 52.1641 73.1553 52.1641C72.6436 52.1641 72.1631 52.1279 71.7139 52.0557C71.2666 51.9834 70.8633 51.8633 70.5039 51.6953L70.5039 50.5557C70.8809 50.7314 71.2988 50.8701 71.7578 50.9717C72.2188 51.0713 72.6484 51.1211 73.0469 51.1211C73.8086 51.1211 74.3789 50.9873 74.7578 50.7197C75.1387 50.4502 75.3291 50.0674 75.3291 49.5713C75.3291 49.0752 75.0928 48.7119 74.6201 48.4814C74.1475 48.249 73.4951 48.1328 72.6631 48.1328L71.5586 48.1328L71.5586 47.0752L72.5928 47.0752C73.4873 47.0752 74.1367 46.9473 74.541 46.6914C74.9453 46.4355 75.1475 46.084 75.1475 45.6367C75.1475 45.252 74.9951 44.9521 74.6904 44.7373C74.3877 44.5205 73.9805 44.4121 73.4688 44.4121C72.957 44.4121 72.5186 44.4785 72.1533 44.6113C71.79 44.7422 71.4404 44.916 71.1045 45.1328L70.5039 44.2568C70.8711 44.001 71.3066 43.7871 71.8105 43.6152C72.3164 43.4434 72.8965 43.3574 73.5508 43.3574C74.4883 43.3574 75.207 43.5576 75.707 43.958C76.207 44.3564 76.457 44.8633 76.457 45.4785ZM80.7759 45.4551C81.5845 45.4551 82.19 45.6338 82.5923 45.9912C82.9966 46.3467 83.1988 46.9043 83.1988 47.6641L83.1988 52.0439L82.2993 52.0439L82.0474 51.1445L82.0005 51.1445C81.7193 51.4961 81.4243 51.7539 81.1158 51.918C80.8091 52.082 80.3843 52.1641 79.8413 52.1641C79.2574 52.1641 78.773 52.0059 78.3882 51.6895C78.0034 51.373 77.8111 50.8789 77.8111 50.207C77.8111 49.5508 78.0591 49.0508 78.5552 48.707C79.0513 48.3633 79.8159 48.1758 80.8492 48.1445L81.9507 48.1094L81.9507 47.749C81.9507 47.2764 81.8423 46.9424 81.6255 46.7471C81.4107 46.5498 81.1079 46.4512 80.7173 46.4512C80.3892 46.4512 80.0728 46.5 79.7681 46.5977C79.4634 46.6934 79.1714 46.8086 78.8921 46.9434L78.4849 46.0205C78.7876 45.8604 79.1372 45.7266 79.5337 45.6191C79.9302 45.5098 80.3443 45.4551 80.7759 45.4551ZM81.0747 48.959C80.3404 48.9922 79.8306 49.1152 79.5454 49.3281C79.2622 49.5391 79.1206 49.8359 79.1206 50.2188C79.1206 50.5547 79.2202 50.7988 79.4195 50.9512C79.6206 51.1035 79.8804 51.1797 80.1988 51.1797C80.6949 51.1797 81.1089 51.04 81.4409 50.7607C81.773 50.4795 81.939 50.0596 81.939 49.501L81.939 48.9355L81.0747 48.959ZM94.1795 45.5752L94.1795 51.0361L95.117 51.0361L95.117 54.2998L93.9041 54.2998L93.9041 52.0439L85.1561 52.0439L85.1561 45.5752L86.4276 45.5752L86.4276 51.0244L89.0321 51.0244L89.0321 45.5752L90.3036 45.5752L90.3036 51.0244L92.9081 51.0244L92.9081 45.5752L94.1795 45.5752ZM97.517 49.1025C97.517 49.2314 97.5101 49.4043 97.4965 49.6211C97.4848 49.8359 97.473 50.0498 97.4613 50.2627C97.4496 50.4736 97.4359 50.6318 97.4203 50.7373L100.743 45.5752L102.292 45.5752L102.292 52.0439L101.091 52.0439L101.091 48.5986C101.091 48.4482 101.095 48.2607 101.103 48.0361C101.111 47.8115 101.12 47.5938 101.132 47.3828C101.146 47.1699 101.157 47.0078 101.164 46.8965L97.8627 52.0439L96.3041 52.0439L96.3041 45.5752L97.517 45.5752L97.517 49.1025ZM109.025 46.5947L106.912 46.5947L106.912 52.0439L105.653 52.0439L105.653 46.5947L103.552 46.5947L103.552 45.5752L109.025 45.5752L109.025 46.5947ZM111.497 49.1025C111.497 49.2314 111.49 49.4043 111.476 49.6211C111.465 49.8359 111.453 50.0498 111.441 50.2627C111.43 50.4736 111.416 50.6318 111.4 50.7373L114.723 45.5752L116.272 45.5752L116.272 52.0439L115.071 52.0439L115.071 48.5986C115.071 48.4482 115.075 48.2607 115.083 48.0361C115.091 47.8115 115.1 47.5938 115.112 47.3828C115.126 47.1699 115.137 47.0078 115.144 46.8965L111.843 52.0439L110.284 52.0439L110.284 45.5752L111.497 45.5752L111.497 49.1025ZM125.571 45.5752L125.571 52.0439L124.42 52.0439L124.42 48.2031C124.42 47.9883 124.424 47.7734 124.431 47.5586C124.439 47.3418 124.456 47.1289 124.481 46.9199L124.443 46.9199L122.427 52.0439L121.408 52.0439L119.427 46.9199L119.381 46.9199C119.42 47.3203 119.439 47.7607 119.439 48.2412L119.439 52.0439L118.276 52.0439L118.276 45.5752L120.016 45.5752L121.924 50.5322L123.869 45.5752L125.571 45.5752ZM136.119 47.2188C136.119 47.6113 136.001 47.9238 135.765 48.1562C135.529 48.3887 135.215 48.541 134.824 48.6133L134.824 48.6602C135.24 48.7168 135.594 48.8633 135.885 49.0996C136.178 49.334 136.324 49.6797 136.324 50.1367C136.324 50.6875 136.113 51.1436 135.692 51.5049C135.272 51.8643 134.582 52.0439 133.623 52.0439L130.755 52.0439L130.755 45.5752L133.623 45.5752C134.096 45.5752 134.52 45.6279 134.895 45.7334C135.272 45.8369 135.57 46.0088 135.788 46.249C136.009 46.4893 136.119 46.8125 136.119 47.2188ZM134.824 47.3652C134.824 47.0918 134.722 46.8896 134.517 46.7588C134.314 46.626 133.991 46.5596 133.55 46.5596L132.027 46.5596L132.027 48.1914L133.36 48.1914C134.336 48.1914 134.824 47.916 134.824 47.3652ZM135.003 50.1133C135.003 49.7773 134.873 49.5352 134.613 49.3867C134.354 49.2383 133.976 49.1641 133.48 49.1641L132.027 49.1641L132.027 51.083L133.503 51.083C133.976 51.083 134.344 51.0098 134.608 50.8633C134.871 50.7148 135.003 50.4648 135.003 50.1133ZM146.221 52.0439L144.937 52.0439L144.937 46.5947L143.115 46.5947C143.01 47.9229 142.867 48.9932 142.687 49.8057C142.508 50.6182 142.266 51.2109 141.961 51.584C141.658 51.9551 141.267 52.1406 140.786 52.1406C140.497 52.1406 140.269 52.1006 140.101 52.0205L140.101 51.0479C140.214 51.0889 140.347 51.1094 140.499 51.1094C140.755 51.1094 140.98 50.9277 141.176 50.5645C141.371 50.1992 141.539 49.6104 141.68 48.7979C141.82 47.9854 141.935 46.9111 142.022 45.5752L146.221 45.5752L146.221 52.0439ZM156.769 48.8037C156.769 49.876 156.507 50.7041 155.984 51.2881C155.46 51.8721 154.75 52.1641 153.854 52.1641C153.045 52.1641 152.383 51.916 151.867 51.4199C151.352 50.9238 151.058 50.1914 150.986 49.2227L149.486 49.2227L149.486 52.0439L148.214 52.0439L148.214 45.5752L149.486 45.5752L149.486 48.2031L150.997 48.2031C151.093 47.3164 151.395 46.6367 151.903 46.1641C152.412 45.6914 153.074 45.4551 153.889 45.4551C154.449 45.4551 154.947 45.5859 155.383 45.8477C155.82 46.1074 156.16 46.4854 156.403 46.9814C156.647 47.4756 156.769 48.083 156.769 48.8037ZM152.269 48.8037C152.269 49.5635 152.397 50.1396 152.653 50.5322C152.91 50.9248 153.319 51.1211 153.877 51.1211C154.438 51.1211 154.842 50.9248 155.09 50.5322C155.338 50.1396 155.462 49.5635 155.462 48.8037C155.462 48.0439 155.336 47.4727 155.084 47.0898C154.832 46.7051 154.426 46.5127 153.865 46.5127C153.315 46.5127 152.91 46.7051 152.653 47.0898C152.397 47.4727 152.269 48.0439 152.269 48.8037ZM158.03 48.168C158.03 46.7441 158.261 45.6367 158.724 44.8457C159.189 44.0527 159.938 43.5518 160.971 43.3428C161.457 43.2471 161.941 43.1611 162.421 43.085C162.902 43.0088 163.366 42.9355 163.813 42.8652L163.995 43.9785C163.723 44.0195 163.413 44.0664 163.063 44.1191C162.715 44.1699 162.373 44.2236 162.038 44.2803C161.702 44.3369 161.413 44.3887 161.173 44.4355C160.806 44.5078 160.495 44.6387 160.239 44.8281C159.983 45.0156 159.783 45.2871 159.638 45.6426C159.494 45.998 159.41 46.4678 159.386 47.0518L159.459 47.0518C159.571 46.8994 159.72 46.7432 159.908 46.583C160.095 46.4229 160.323 46.2891 160.59 46.1816C160.86 46.0742 161.17 46.0205 161.522 46.0205C162.338 46.0205 162.962 46.2803 163.394 46.7998C163.826 47.3193 164.041 48.0195 164.041 48.9004C164.041 49.6289 163.915 50.2354 163.663 50.7197C163.412 51.2021 163.057 51.5635 162.6 51.8037C162.145 52.0439 161.621 52.1641 161.03 52.1641C160.118 52.1641 159.389 51.8223 158.844 51.1387C158.301 50.4551 158.03 49.4648 158.03 48.168ZM161.126 51.1211C161.599 51.1211 161.983 50.9648 162.278 50.6523C162.575 50.3398 162.723 49.7998 162.723 49.0322C162.723 48.417 162.611 47.9297 162.386 47.5703C162.162 47.209 161.789 47.0283 161.27 47.0283C160.95 47.0283 160.656 47.1006 160.388 47.2451C160.121 47.3877 159.896 47.5557 159.714 47.749C159.535 47.9404 159.41 48.0957 159.339 48.2148C159.339 48.584 159.365 48.9404 159.415 49.2842C159.468 49.6279 159.56 49.9385 159.691 50.2158C159.824 50.4912 160.006 50.7109 160.239 50.875C160.471 51.0391 160.767 51.1211 161.126 51.1211ZM171.363 48.8037C171.363 49.876 171.087 50.7041 170.534 51.2881C169.981 51.8721 169.237 52.1641 168.302 52.1641C167.718 52.1641 167.199 52.0322 166.746 51.7686C166.295 51.5049 165.939 51.123 165.68 50.623C165.42 50.123 165.29 49.5166 165.29 48.8037C165.29 47.7314 165.561 46.9053 166.104 46.3252C166.649 45.7451 167.393 45.4551 168.337 45.4551C168.929 45.4551 169.45 45.5859 169.901 45.8477C170.354 46.1074 170.711 46.4854 170.971 46.9814C171.232 47.4756 171.363 48.083 171.363 48.8037ZM166.597 48.8037C166.597 49.5322 166.734 50.1006 167.01 50.5088C167.287 50.917 167.726 51.1211 168.325 51.1211C168.925 51.1211 169.362 50.917 169.638 50.5088C169.915 50.1006 170.054 49.5322 170.054 48.8037C170.054 48.0674 169.913 47.502 169.632 47.1074C169.352 46.7109 168.913 46.5127 168.313 46.5127C167.714 46.5127 167.277 46.7109 167.004 47.1074C166.732 47.502 166.597 48.0674 166.597 48.8037ZM178.49 42.8652C178.433 43.4727 178.221 43.9424 177.854 44.2744C177.487 44.6064 176.883 44.7725 176.043 44.7725C175.467 44.7725 175.008 44.7002 174.666 44.5557C174.327 44.4111 174.08 44.1973 173.928 43.9141C173.778 43.6309 173.686 43.2812 173.653 42.8652L174.819 42.8652C174.858 43.3047 174.971 43.5967 175.159 43.7412C175.348 43.8838 175.651 43.9551 176.067 43.9551C176.426 43.9551 176.713 43.8779 176.928 43.7236C177.145 43.5674 177.274 43.2812 177.315 42.8652L178.49 42.8652ZM174.183 49.1025C174.183 49.2314 174.176 49.4043 174.162 49.6211C174.151 49.8359 174.139 50.0498 174.127 50.2627C174.116 50.4736 174.102 50.6318 174.086 50.7373L177.409 45.5752L178.958 45.5752L178.958 52.0439L177.757 52.0439L177.757 48.5986C177.757 48.4482 177.761 48.2607 177.769 48.0361C177.777 47.8115 177.786 47.5938 177.798 47.3828C177.812 47.1699 177.823 47.0078 177.83 46.8965L174.529 52.0439L172.97 52.0439L172.97 45.5752L174.183 45.5752L174.183 49.1025ZM186.746 52.1641C185.849 52.1641 185.128 51.8984 184.583 51.3672C184.04 50.834 183.769 49.9951 183.769 48.8506C183.769 48.0518 183.901 47.4043 184.164 46.9082C184.428 46.4121 184.791 46.0459 185.254 45.8096C185.719 45.5732 186.248 45.4551 186.842 45.4551C187.202 45.4551 187.538 45.4932 187.853 45.5693C188.169 45.6455 188.432 45.7314 188.641 45.8271L188.257 46.8613C188.033 46.7715 187.794 46.6953 187.542 46.6328C187.29 46.5684 187.052 46.5361 186.828 46.5361C185.66 46.5361 185.076 47.3037 185.076 48.8389C185.076 49.5752 185.219 50.1357 185.506 50.5205C185.795 50.9033 186.22 51.0947 186.781 51.0947C187.14 51.0947 187.457 51.0547 187.733 50.9746C188.01 50.8945 188.265 50.791 188.497 50.6641L188.497 51.7686C188.265 51.9033 188.013 52.0029 187.742 52.0674C187.47 52.1318 187.138 52.1641 186.746 52.1641ZM191.234 49.1025C191.234 49.2314 191.227 49.4043 191.213 49.6211C191.202 49.8359 191.19 50.0498 191.178 50.2627C191.167 50.4736 191.153 50.6318 191.137 50.7373L194.46 45.5752L196.009 45.5752L196.009 52.0439L194.808 52.0439L194.808 48.5986C194.808 48.4482 194.812 48.2607 194.82 48.0361C194.828 47.8115 194.837 47.5938 194.849 47.3828C194.863 47.1699 194.874 47.0078 194.881 46.8965L191.58 52.0439L190.021 52.0439L190.021 45.5752L191.234 45.5752L191.234 49.1025ZM202.742 46.5947L200.629 46.5947L200.629 52.0439L199.369 52.0439L199.369 46.5947L197.269 46.5947L197.269 45.5752L202.742 45.5752L202.742 46.5947ZM203.017 45.5752L204.385 45.5752L205.73 49.249C205.833 49.5283 205.923 49.7979 205.999 50.0576C206.075 50.3174 206.133 50.5713 206.172 50.8193L206.222 50.8193C206.261 50.6123 206.322 50.3691 206.406 50.0898C206.49 49.8086 206.584 49.5244 206.688 49.2373L207.962 45.5752L209.33 45.5752L206.556 52.9199C206.325 53.543 206.016 54.0322 205.627 54.3877C205.238 54.7451 204.732 54.9238 204.109 54.9238C203.908 54.9238 203.735 54.9141 203.591 54.8945C203.448 54.875 203.325 54.8525 203.222 54.8271L203.222 53.8193C203.302 53.835 203.405 53.8506 203.532 53.8662C203.661 53.8838 203.793 53.8926 203.928 53.8926C204.297 53.8926 204.593 53.7861 204.815 53.5732C205.04 53.3623 205.217 53.085 205.346 52.7412L205.609 52.0439L203.017 45.5752ZM212.833 45.4551C213.641 45.4551 214.247 45.6338 214.649 45.9912C215.054 46.3467 215.256 46.9043 215.256 47.6641L215.256 52.0439L214.356 52.0439L214.104 51.1445L214.057 51.1445C213.776 51.4961 213.481 51.7539 213.173 51.918C212.866 52.082 212.441 52.1641 211.898 52.1641C211.314 52.1641 210.83 52.0059 210.445 51.6895C210.06 51.373 209.868 50.8789 209.868 50.207C209.868 49.5508 210.116 49.0508 210.612 48.707C211.108 48.3633 211.873 48.1758 212.906 48.1445L214.008 48.1094L214.008 47.749C214.008 47.2764 213.899 46.9424 213.682 46.7471C213.468 46.5498 213.165 46.4512 212.774 46.4512C212.446 46.4512 212.13 46.5 211.825 46.5977C211.52 46.6934 211.228 46.8086 210.949 46.9434L210.542 46.0205C210.845 45.8604 211.194 45.7266 211.591 45.6191C211.987 45.5098 212.401 45.4551 212.833 45.4551ZM213.132 48.959C212.397 48.9922 211.888 49.1152 211.602 49.3281C211.319 49.5391 211.178 49.8359 211.178 50.2188C211.178 50.5547 211.277 50.7988 211.476 50.9512C211.678 51.1035 211.937 51.1797 212.256 51.1797C212.752 51.1797 213.166 51.04 213.498 50.7607C213.83 50.4795 213.996 50.0596 213.996 49.501L213.996 48.9355L213.132 48.959ZM223.802 54.3115L222.601 54.3115L222.601 52.0439L217.213 52.0439L217.213 45.5752L218.485 45.5752L218.485 51.0244L221.605 51.0244L221.605 45.5752L222.876 45.5752L222.876 51.0361L223.802 51.0361L223.802 54.3115ZM226.214 49.1025C226.214 49.2314 226.207 49.4043 226.193 49.6211C226.182 49.8359 226.17 50.0498 226.158 50.2627C226.147 50.4736 226.133 50.6318 226.117 50.7373L229.439 45.5752L230.989 45.5752L230.989 52.0439L229.788 52.0439L229.788 48.5986C229.788 48.4482 229.792 48.2607 229.8 48.0361C229.808 47.8115 229.817 47.5938 229.829 47.3828C229.843 47.1699 229.854 47.0078 229.861 46.8965L226.56 52.0439L225.001 52.0439L225.001 45.5752L226.214 45.5752L226.214 49.1025ZM234.206 49.1025C234.206 49.2314 234.199 49.4043 234.185 49.6211C234.174 49.8359 234.162 50.0498 234.15 50.2627C234.139 50.4736 234.125 50.6318 234.109 50.7373L237.432 45.5752L238.981 45.5752L238.981 52.0439L237.78 52.0439L237.78 48.5986C237.78 48.4482 237.784 48.2607 237.792 48.0361C237.8 47.8115 237.809 47.5938 237.821 47.3828C237.835 47.1699 237.846 47.0078 237.853 46.8965L234.552 52.0439L232.993 52.0439L232.993 45.5752L234.206 45.5752L234.206 49.1025Z" fill="#30AFB8" fill-opacity="1.000000" fill-rule="evenodd"/>
</svg>
