<svg width="40.000000" height="40.000000" viewBox="0 0 40 40" fill="none" xmlns="http://www.w3.org/2000/svg" xmlns:xlink="http://www.w3.org/1999/xlink">
	<desc>
			Created with Pixso.
	</desc>
	<defs>
		<clipPath id="clip13_99">
			<rect id="logos:whatsapp-icon" width="40.000000" height="40.000000" fill="white" fill-opacity="0"/>
		</clipPath>
		<linearGradient id="paint_linear_13_97_0" x1="1307.000000" y1="2607.000000" x2="1307.000000" y2="7.000000" gradientUnits="userSpaceOnUse">
			<stop stop-color="#F9F9F9"/>
			<stop offset="1.000000" stop-color="#FFFFFF"/>
		</linearGradient>
	</defs>
	<rect id="logos:whatsapp-icon" width="40.000000" height="40.000000" fill="#FFFFFF" fill-opacity="0"/>
	<g clip-path="url(#clip13_99)">
		<circle id="Ellipse 2" cx="20.000000" cy="20.000000" r="20.000000" fill="#262626" fill-opacity="1.000000"/>
		<path id="Vector" d="M7.1084 19.8828C7.10767 22.1533 7.70361 24.3701 8.83667 26.3237L7 33L13.8628 31.2085C15.761 32.2373 17.8877 32.7764 20.0491 32.7764L20.0547 32.7764C27.1892 32.7764 32.9968 26.9971 33 19.8931C33.0015 16.4507 31.656 13.2139 29.2117 10.7783C26.7676 8.34326 23.5173 7.00146 20.0542 7C12.9187 7 7.11133 12.7793 7.1084 19.8828Z" fill="#262626" fill-opacity="1.000000" fill-rule="nonzero"/>
		<path id="Vector" d="M7.10864 19.8828C7.10791 22.1538 7.70386 24.3701 8.83667 26.3242L7 33L13.8628 31.2085C15.7537 32.2349 17.8826 32.7764 20.0488 32.7769L20.0544 32.7769C27.189 32.7769 32.9971 26.9966 33 19.8931C33.0012 16.4507 31.6558 13.2134 29.2117 10.7783C26.7673 8.34326 23.5173 7.00146 20.0544 7C12.9187 7 7.11157 12.7793 7.10864 19.8828ZM11.1956 25.9878L10.9392 25.5825C9.86206 23.8774 9.2937 21.9072 9.29443 19.8838C9.29663 13.9795 14.1233 9.17578 20.0586 9.17578C22.9326 9.17725 25.6338 10.2925 27.6655 12.3164C29.697 14.3403 30.8149 17.0308 30.8142 19.8926C30.8115 25.7969 25.9849 30.6011 20.0544 30.6011L20.0503 30.6011C18.1191 30.6001 16.2253 30.0835 14.5737 29.1079L14.1807 28.876L10.1082 29.939L11.1956 25.9873L11.1956 25.9878Z" fill="url(#paint_linear_13_97_0)" fill-opacity="1.000000" fill-rule="nonzero"/>
		<path id="Vector" d="M16.5593 14.5576C16.3013 14.0273 16.0298 14.0166 15.7842 14.0073C15.5833 13.9995 15.3535 14 15.124 14C14.8943 14 14.5212 14.0801 14.2056 14.3984C13.8899 14.7168 13 15.4868 13 17.0532C13 18.6196 14.2344 20.1333 14.4065 20.3457C14.5786 20.5581 16.7893 23.875 20.2905 25.1509C23.2002 26.2114 23.7922 26.0005 24.4238 25.9473C25.0554 25.894 26.4619 25.1772 26.7488 24.4341C27.0359 23.6909 27.0359 23.0537 26.95 22.9204C26.8638 22.7876 26.634 22.708 26.2896 22.5488C25.9451 22.3896 24.2515 21.6196 23.9358 21.5132C23.6201 21.4072 23.3904 21.354 23.1606 21.6729C22.9309 21.9912 22.2715 22.708 22.0703 22.9204C21.8694 23.1333 21.6685 23.1597 21.324 23.0005C20.9795 22.8408 19.8701 22.5049 18.554 21.4204C17.53 20.5767 16.8386 19.5347 16.6377 19.2158C16.4368 18.8979 16.6162 18.7251 16.7888 18.5664C16.9436 18.4238 17.1335 18.1948 17.3059 18.0088C17.4775 17.8232 17.5349 17.6904 17.6499 17.478C17.7649 17.2656 17.7073 17.0796 17.6213 16.9204C17.5349 16.7612 16.8655 15.187 16.5593 14.5576Z" fill="#FFFFFF" fill-opacity="1.000000" fill-rule="nonzero"/>
	</g>
</svg>
