<svg width="60" height="61" viewBox="0 0 60 61" fill="none" xmlns="http://www.w3.org/2000/svg">
<g id="vectore">
<path id="Vector" d="M51.4285 30.7901V7.63456C51.4285 7.12307 51.0018 6.71185 50.476 6.7002C40.9749 6.48969 34.0187 3.18921 30.6369 1.15539C30.2188 0.903944 29.6714 0.968481 29.2907 1.27091C25.9284 3.94188 14.8641 6.52124 6.19015 6.70082C5.66428 6.71171 5.23804 7.12189 5.23804 7.63338V33.1054C5.23804 35.3281 5.87296 37.736 6.19042 38.6622M51.4285 38.6622C49.9999 41.4406 45.9999 46.8121 45.238 47.9234M28.5713 59.037C24.1269 57.6478 14.7618 53.8507 12.8571 49.7757M44.7618 21.9919V13.1941C44.7618 12.6826 44.3368 12.2692 43.812 12.2356C38.8732 11.9198 33.2821 9.681 30.6947 8.40239C30.2514 8.18331 29.6726 8.24514 29.2499 8.5C26.7296 10.0199 17.4374 11.9352 12.8557 12.2343C12.3309 12.2686 11.9047 12.6804 11.9047 13.1919V31.7162C11.9047 32.8805 13.1696 36.3248 13.3333 36.8099M41.4285 42.3667C39.1424 47.2573 32.4217 53.0253 30.1371 53.8854C29.9701 53.9483 29.791 53.9405 29.6249 53.875C27.0681 52.8658 19.0432 47.669 18.0952 45.6081" stroke="#30AFB8" stroke-width="2" stroke-linecap="round" stroke-linejoin="round"/>
<path id="Vector_2" d="M29.1588 22.0647L29.1501 22.0695L29.1416 22.0744C28.9008 22.2121 28.5084 22.2666 28.0747 22.1559C27.641 22.0451 27.3269 21.81 27.1868 21.5751C26.5994 20.5898 26.9526 19.9047 27.4142 19.6406L36.4885 14.4507C36.992 14.1627 37.8289 14.2483 38.4822 15.0152L38.6464 15.2906L39.5095 14.7763L38.6464 15.2906C38.9303 15.7669 38.8515 16.5557 38.0827 17.1872L29.1588 22.0647ZM11.8345 46.8185L11.7821 46.8484L11.7342 46.884L11.734 46.8841L11.7339 46.8841L11.7337 46.8843L11.7313 46.886L11.7176 46.8961C11.7046 46.9055 11.6843 46.9202 11.6569 46.9397C11.6021 46.9788 11.5194 47.0369 11.412 47.1102C11.1969 47.2568 10.8839 47.4631 10.4988 47.697C9.72401 48.1676 8.67878 48.7368 7.56489 49.1605C6.43628 49.5898 5.32401 49.8359 4.3845 49.7493C3.50049 49.6678 2.76304 49.2976 2.23307 48.4087C1.70485 47.5227 1.74192 46.7261 2.09616 45.949C2.47639 45.1149 3.23611 44.2911 4.17271 43.5392C5.09592 42.798 6.11529 42.1863 6.91479 41.7565C7.31207 41.543 7.64943 41.3773 7.88566 41.2658C8.00365 41.2101 8.09609 41.1681 8.15777 41.1406C8.1886 41.1268 8.21172 41.1167 8.22647 41.1102L8.24224 41.1034L8.24496 41.1022L8.24526 41.1021L8.24535 41.1021L8.24553 41.102L8.30021 41.0787L8.35235 41.0489C8.79648 40.7949 10.1165 40.2497 11.9714 39.51C12.4349 39.3251 12.9263 39.1302 13.437 38.9276C14.9158 38.341 16.5563 37.6903 18.1501 37.0342C20.2903 36.1532 22.382 35.2481 23.9174 34.458C24.6782 34.0665 25.3477 33.6804 25.8247 33.3193C26.0583 33.1425 26.2991 32.9324 26.4777 32.6907C26.6316 32.4827 26.8705 32.0687 26.7586 31.5627C26.7634 31.5441 26.7791 31.502 26.8269 31.4305C26.927 31.2809 27.1042 31.1033 27.3425 30.9184C27.4026 30.8718 27.4637 30.8269 27.5246 30.7841L30.3504 35.5239C30.2927 35.5497 30.2337 35.5747 30.1739 35.5986C29.8923 35.711 29.6438 35.7764 29.4555 35.7886C29.3435 35.7959 29.2922 35.7828 29.2749 35.7763C28.8924 35.4385 28.4223 35.4384 28.1653 35.467C27.8678 35.5001 27.5654 35.6009 27.2933 35.7133C26.7387 35.9424 26.0666 36.3236 25.3443 36.7804C23.8868 37.702 22.0538 39.0417 20.2186 40.4344C18.8519 41.4715 17.467 42.5512 16.2186 43.5243C15.7875 43.8604 15.3727 44.1838 14.9805 44.4884C13.411 45.7072 12.2782 46.5647 11.8345 46.8185ZM29.2678 35.7729C29.268 35.7728 29.2693 35.7734 29.2716 35.7749C29.2689 35.7737 29.2677 35.7729 29.2678 35.7729ZM26.7573 31.5683C26.7573 31.5721 26.7569 31.5741 26.7567 31.5742C26.7565 31.5743 26.7565 31.5724 26.7573 31.5683ZM38.5594 40.6506C38.2633 40.1538 38.2159 39.7257 38.2881 39.3823C38.3584 39.0481 38.5605 38.7075 38.9273 38.4074L47.9341 33.2561C48.4376 32.9681 49.2745 33.0537 49.9277 33.8206L50.0919 34.096C50.3768 34.5738 50.2966 35.3659 49.5212 35.9984L40.581 41.1117C39.6245 41.4674 38.8524 41.142 38.5594 40.6506ZM34.4977 33.8379L31.0453 28.0471C30.5175 27.1617 30.7876 26.1618 31.6947 25.6429L39.722 21.0518C40.6415 20.5259 41.6938 20.7947 42.2289 21.6922L45.6813 27.4829C46.2091 28.3683 45.939 29.3682 45.0319 29.8871L37.0046 34.4782C36.0851 35.0041 35.0328 34.7353 34.4977 33.8379Z" stroke="#30AFB8" stroke-width="2"/>
<g id="vector">
<path id="Rectangle 42" d="M38.2825 54.7957C38.7168 53.2768 40.1154 52.165 41.7737 52.165H51.56C53.2183 52.165 54.617 53.2768 55.0512 54.7957H38.2825Z" stroke="#30AFB8" stroke-width="2"/>
<path id="Rectangle 43" d="M33.4909 59.4264C33.9467 57.3908 35.7645 55.8696 37.9376 55.8696H54.4431C56.6162 55.8696 58.434 57.3908 58.8898 59.4264H33.4909Z" stroke="#30AFB8" stroke-width="2"/>
</g>
</g>
</svg>
