<svg width="40" height="40" viewBox="0 0 40 40" fill="none" xmlns="http://www.w3.org/2000/svg">
<g id="logos:telegram" clip-path="url(#clip0_953_98)">
<path id="Vector" d="M20 0C14.6969 0 9.60625 2.10844 5.85938 5.85781C2.10863 9.60868 0.00103897 14.6956 0 20C0 25.3022 2.10938 30.3928 5.85938 34.1422C9.60625 37.8916 14.6969 40 20 40C25.3031 40 30.3937 37.8916 34.1406 34.1422C37.8906 30.3928 40 25.3022 40 20C40 14.6978 37.8906 9.60719 34.1406 5.85781C30.3937 2.10844 25.3031 0 20 0Z" fill="#30AFB8"/>
<path id="Vector_2" d="M9.05315 19.7886C14.8844 17.2486 18.7719 15.5739 20.7157 14.7648C26.2719 12.4545 27.425 12.0533 28.1782 12.0397C28.3438 12.037 28.7125 12.078 28.9532 12.2725C29.1532 12.4365 29.2094 12.6584 29.2375 12.8142C29.2625 12.9698 29.2969 13.3245 29.2688 13.6014C28.9688 16.7639 27.6657 24.4383 27.0032 27.9805C26.725 29.4792 26.1719 29.9817 25.6375 30.0308C24.475 30.1376 23.5938 29.2633 22.4688 28.5261C20.7094 27.372 19.7157 26.6539 18.0063 25.528C16.0313 24.2267 17.3125 23.5114 18.4375 22.3426C18.7313 22.0367 23.85 17.382 23.9469 16.9598C23.9594 16.907 23.9719 16.7101 23.8532 16.6064C23.7375 16.5023 23.5657 16.538 23.4407 16.5661C23.2625 16.6061 20.4532 18.4648 15.0032 22.142C14.2063 22.6901 13.4844 22.9573 12.8344 22.9433C12.1219 22.9279 10.7469 22.5395 9.72503 22.2076C8.47503 21.8005 7.47815 21.5851 7.56565 20.8936C7.6094 20.5336 8.10628 20.1651 9.05315 19.7886Z" fill="white"/>
</g>
<defs>
<clipPath id="clip0_953_98">
<rect width="40" height="40" fill="white"/>
</clipPath>
</defs>
</svg>
