<svg width="40" height="40" viewBox="0 0 40 40" fill="none" xmlns="http://www.w3.org/2000/svg">
<g id="logos:whatsapp-icon" clip-path="url(#clip0_953_101)">
<circle id="Ellipse 2" cx="20" cy="20" r="20" fill="#30AFB8"/>
<path id="Vector" d="M7.10836 19.8829C7.10773 22.1532 7.70362 24.37 8.8367 26.324L7 33L13.8628 31.2086C15.761 32.2373 17.8878 32.7764 20.049 32.7765H20.0547C27.1892 32.7765 32.9969 26.9969 33 19.893C33.0014 16.4507 31.656 13.2137 29.2116 10.7784C26.7677 8.34333 23.5173 7.00157 20.0541 7C12.9187 7 7.11141 12.7793 7.10847 19.8829" fill="#30AFB8"/>
<path id="Vector_2" d="M7.10867 19.883C7.10796 22.1536 7.70383 24.3702 8.83666 26.324L7 33L13.8627 31.2086C15.7536 32.235 17.8825 32.7761 20.0489 32.777H20.0544C27.189 32.777 32.997 26.9967 33 19.8933C33.0012 16.4507 31.6557 13.2135 29.2117 10.7783C26.7674 8.34334 23.5174 7.00142 20.0544 7C12.9187 7 7.11152 12.7794 7.10867 19.883ZM11.1955 25.9876L10.9393 25.5826C9.86213 23.8775 9.29359 21.9071 9.2944 19.8838C9.29673 13.9795 14.1234 9.17588 20.0585 9.17588C22.9327 9.17709 25.6339 10.2925 27.6655 12.3163C29.6971 14.3403 30.815 17.0309 30.8143 19.8925C30.8116 25.7968 25.9849 30.601 20.0544 30.601H20.0502C18.1192 30.6 16.2253 30.0837 14.5737 29.1081L14.1807 28.876L10.1082 29.939L11.1955 25.9875V25.9876Z" fill="url(#paint0_linear_953_101)"/>
<path id="Vector_3" d="M16.5593 14.5575C16.3013 14.0274 16.0297 14.0167 15.7843 14.0074C15.5833 13.9994 15.3536 14 15.1241 14C14.8944 14 14.5212 14.0799 14.2057 14.3982C13.8899 14.7169 13 15.4869 13 17.0531C13 18.6194 14.2343 20.1331 14.4064 20.3457C14.5787 20.5579 16.7893 23.8748 20.2905 25.1508C23.2002 26.2113 23.7923 26.0004 24.4238 25.9472C25.0555 25.8942 26.4619 25.1773 26.7488 24.434C27.0359 23.6907 27.0359 23.0536 26.9499 22.9204C26.8638 22.7878 26.6341 22.7081 26.2896 22.549C25.945 22.3898 24.2516 21.6196 23.9359 21.5134C23.6201 21.4072 23.3904 21.3542 23.1607 21.673C22.931 21.9912 22.2714 22.7081 22.0703 22.9204C21.8695 23.1332 21.6684 23.1597 21.3241 23.0005C20.9794 22.8408 19.8701 22.505 18.554 21.4206C17.53 20.5768 16.8387 19.5347 16.6377 19.216C16.4368 18.8977 16.6162 18.7252 16.7889 18.5666C16.9437 18.4239 17.1335 18.1948 17.3059 18.009C17.4776 17.8231 17.535 17.6905 17.6498 17.4782C17.7648 17.2657 17.7072 17.0797 17.6213 16.9205C17.535 16.7613 16.8656 15.1869 16.5593 14.5575Z" fill="white"/>
</g>
<defs>
<linearGradient id="paint0_linear_953_101" x1="1307" y1="2607" x2="1307" y2="7" gradientUnits="userSpaceOnUse">
<stop stop-color="#F9F9F9"/>
<stop offset="1" stop-color="white"/>
</linearGradient>
<clipPath id="clip0_953_101">
<rect width="40" height="40" fill="white"/>
</clipPath>
</defs>
</svg>
