<svg width="60" height="60" viewBox="0 0 60 60" fill="none" xmlns="http://www.w3.org/2000/svg">
<g id="Component 5">
<path id="Vector" d="M26.25 32.4999H32.5C33.826 32.4999 35.0978 31.9731 36.0355 31.0354C36.9732 30.0978 37.5 28.826 37.5 27.4999C37.5 26.1738 36.9732 24.9021 36.0355 23.9644C35.0978 23.0267 33.826 22.4999 32.5 22.4999H25.6C23.6115 22.5017 21.7051 23.293 20.3 24.6999L13.9 31.0999M36.25 30.7999L46.675 18.5749C47.4804 17.6822 48.5973 17.132 49.796 17.0377C50.9947 16.9434 52.1839 17.312 53.1191 18.0678C54.0542 18.8236 54.6641 19.9091 54.8233 21.1009C54.9825 22.2927 54.6789 23.5002 53.975 24.4749M17.5 47.4999L21.025 43.9749C21.4901 43.507 22.0433 43.1358 22.6525 42.8826C23.2618 42.6295 23.9152 42.4994 24.575 42.4999H37.4C38.592 42.4916 39.7649 42.1992 40.8214 41.647C41.8779 41.0949 42.7876 40.2988 43.475 39.3249L48.725 31.8999M7.49951 37.4999L10.312 34.6874" stroke="#30AFB8" stroke-width="2" stroke-linecap="round" stroke-linejoin="round"/>
<path id="Vector_2" d="M5 35L20 50" stroke="#30AFB8" stroke-width="2" stroke-linecap="round" stroke-linejoin="round"/>
</g>
</svg>
