<svg width="60" height="60" viewBox="0 0 60 60" fill="none" xmlns="http://www.w3.org/2000/svg">
<g id="Component 5">
<path id="Vector" d="M50 15C51.3261 15 52.5979 15.5268 53.5355 16.4645C54.4732 17.4021 55 18.6739 55 20V45C55 46.3261 54.4732 47.5978 53.5355 48.5355C52.5979 49.4732 51.3261 50 50 50H10C7.25 50 5 47.75 5 45M30.175 15C29.3515 14.9957 28.5417 14.7881 27.8177 14.3956C27.0938 14.0031 26.4779 13.4378 26.025 12.75L23.975 9.75C23.5221 9.0622 22.9062 8.49692 22.1823 8.1044C21.4583 7.71188 20.6485 7.50426 19.825 7.5H10C8.67392 7.5 7.40215 8.02678 6.46447 8.96447C5.52678 9.90215 5 11.1739 5 12.5V28.75V35.625M36.5628 15H44.0628" stroke="#30AFB8" stroke-width="2" stroke-linecap="round" stroke-linejoin="round"/>
<path id="Vector_2" d="M22.5 32.5L27.5 37.5L37.5 27.5" stroke="#30AFB8" stroke-width="2" stroke-linecap="round" stroke-linejoin="round"/>
</g>
</svg>
