<svg width="60" height="60" viewBox="0 0 60 60" fill="none" xmlns="http://www.w3.org/2000/svg">
<g id="Component 5">
<path id="Vector" d="M12.5 35C8.75 31.375 5 27 5 21.25C5 17.6033 6.44866 14.1059 9.02728 11.5273C11.6059 8.94866 15.1033 7.5 18.75 7.5C23.15 7.5 26.25 8.75 30 12.5C33.75 8.75 36.85 7.5 41.25 7.5C44.8967 7.5 48.3941 8.94866 50.9727 11.5273C53.5513 14.1059 55 17.6033 55 21.25C55 26.975 51.225 31.35 47.5 35L30 52.5L15.9378 39.375" stroke="#30AFB8" stroke-width="2" stroke-linecap="round" stroke-linejoin="round"/>
<path id="Vector_2" d="M26.2504 16.2499L22.6 19.9C22.0921 20.4043 21.6889 21.0041 21.4138 21.6649C21.1387 22.3256 20.9971 23.0343 20.9971 23.75C20.9971 24.4658 21.1387 25.1745 21.4138 25.8352C21.6889 26.496 22.0921 27.0958 22.6 27.6C24.65 29.65 27.925 29.725 30.1 27.775L35.275 23.025C36.5721 21.848 38.261 21.196 40.0125 21.196C41.7641 21.196 43.4529 21.848 44.75 23.025L52.15 29.675" stroke="#30AFB8" stroke-width="2" stroke-linecap="round" stroke-linejoin="round"/>
<path id="Vector_3" d="M45 37.5L40 32.5" stroke="#30AFB8" stroke-width="2" stroke-linecap="round" stroke-linejoin="round"/>
<path id="Vector_4" d="M37.5 45L32.5 40" stroke="#30AFB8" stroke-width="2" stroke-linecap="round" stroke-linejoin="round"/>
</g>
</svg>
