<svg width="60" height="60" viewBox="0 0 60 60" fill="none" xmlns="http://www.w3.org/2000/svg">
<g id="Component 5">
<path id="Vector" d="M52.5 30V17.5H12.5C11.1739 17.5 9.90215 16.9732 8.96447 16.0355C8.02678 15.0979 7.5 13.8261 7.5 12.5C7.5 11.1739 8.02678 9.90215 8.96447 8.96447C9.90215 8.02678 11.1739 7.5 12.5 7.5H47.5V17.5" stroke="#30AFB8" stroke-width="2" stroke-linecap="round" stroke-linejoin="round"/>
<path id="Vector_2" d="M52.5 40V52.5H47.8125M7.5 30V47.5C7.5 48.8261 8.02678 50.0978 8.96447 51.0355C9.90215 51.9732 11.1739 52.5 12.5 52.5H32.5H39.375M7.5 13.125V20.625" stroke="#30AFB8" stroke-width="2" stroke-linecap="round" stroke-linejoin="round"/>
<path id="Vector_3" d="M45 30C43.6739 30 42.4021 30.5268 41.4645 31.4645C40.5268 32.4021 40 33.6739 40 35C40 36.3261 40.5268 37.5979 41.4645 38.5355C42.4021 39.4732 43.6739 40 45 40H55V30H45Z" stroke="#30AFB8" stroke-width="2" stroke-linecap="round" stroke-linejoin="round"/>
</g>
</svg>
